<svg width="17" height="18" viewBox="0 0 17 18" fill="none" xmlns="http://www.w3.org/2000/svg">
<g clip-path="url(#clip0_24_443)">
<path d="M7.94334 3.30664H3.06667C2.69714 3.30664 2.34274 3.45344 2.08144 3.71474C1.82014 3.97604 1.67334 4.33044 1.67334 4.69997V14.4533C1.67334 14.8228 1.82014 15.1772 2.08144 15.4385C2.34274 15.6998 2.69714 15.8466 3.06667 15.8466H12.82C13.1895 15.8466 13.5439 15.6998 13.8052 15.4385C14.0665 15.1772 14.2133 14.8228 14.2133 14.4533V9.57664" stroke="#707070" stroke-width="1.47529" stroke-linecap="round" stroke-linejoin="round"/>
<path d="M13.1684 2.26165C13.4455 1.9845 13.8214 1.8288 14.2134 1.8288C14.6053 1.8288 14.9812 1.9845 15.2584 2.26165C15.5355 2.5388 15.6912 2.9147 15.6912 3.30665C15.6912 3.6986 15.5355 4.0745 15.2584 4.35165L8.64006 10.97L5.85339 11.6666L6.55006 8.87998L13.1684 2.26165Z" stroke="#707070" stroke-width="1.47529" stroke-linecap="round" stroke-linejoin="round"/>
</g>
<defs>
<clipPath id="clip0_24_443">
<rect width="16.72" height="16.72" fill="white" transform="translate(0.280029 0.519989)"/>
</clipPath>
</defs>
</svg>
