<svg width="17" height="19" viewBox="0 0 17 19" fill="none" xmlns="http://www.w3.org/2000/svg">
<path d="M6.80001 14.84C7.03341 14.84 7.25724 14.7473 7.42227 14.5823C7.5873 14.4172 7.68001 14.1934 7.68001 13.96V8.68001C7.68001 8.44662 7.5873 8.22279 7.42227 8.05776C7.25724 7.89272 7.03341 7.80001 6.80001 7.80001C6.56662 7.80001 6.34279 7.89272 6.17776 8.05776C6.01273 8.22279 5.92001 8.44662 5.92001 8.68001V13.96C5.92001 14.1934 6.01273 14.4172 6.17776 14.5823C6.34279 14.7473 6.56662 14.84 6.80001 14.84ZM15.6 4.28001H12.08V3.40001C12.08 2.69984 11.8019 2.02834 11.3068 1.53325C10.8117 1.03815 10.1402 0.76001 9.44001 0.76001H7.68001C6.97984 0.76001 6.30835 1.03815 5.81325 1.53325C5.31816 2.02834 5.04001 2.69984 5.04001 3.40001V4.28001H1.52001C1.28662 4.28001 1.06279 4.37272 0.897761 4.53776C0.732729 4.70279 0.640015 4.92662 0.640015 5.16001C0.640015 5.3934 0.732729 5.61723 0.897761 5.78226C1.06279 5.9473 1.28662 6.04001 1.52001 6.04001H2.40001V15.72C2.40001 16.4202 2.67816 17.0917 3.17325 17.5868C3.66835 18.0819 4.33984 18.36 5.04001 18.36H12.08C12.7802 18.36 13.4517 18.0819 13.9468 17.5868C14.4419 17.0917 14.72 16.4202 14.72 15.72V6.04001H15.6C15.8334 6.04001 16.0572 5.9473 16.2223 5.78226C16.3873 5.61723 16.48 5.3934 16.48 5.16001C16.48 4.92662 16.3873 4.70279 16.2223 4.53776C16.0572 4.37272 15.8334 4.28001 15.6 4.28001ZM6.80001 3.40001C6.80001 3.16662 6.89273 2.94279 7.05776 2.77776C7.22279 2.61272 7.44662 2.52001 7.68001 2.52001H9.44001C9.6734 2.52001 9.89724 2.61272 10.0623 2.77776C10.2273 2.94279 10.32 3.16662 10.32 3.40001V4.28001H6.80001V3.40001ZM12.96 15.72C12.96 15.9534 12.8673 16.1772 12.7023 16.3423C12.5372 16.5073 12.3134 16.6 12.08 16.6H5.04001C4.80662 16.6 4.58279 16.5073 4.41776 16.3423C4.25273 16.1772 4.16001 15.9534 4.16001 15.72V6.04001H12.96V15.72ZM10.32 14.84C10.5534 14.84 10.7772 14.7473 10.9423 14.5823C11.1073 14.4172 11.2 14.1934 11.2 13.96V8.68001C11.2 8.44662 11.1073 8.22279 10.9423 8.05776C10.7772 7.89272 10.5534 7.80001 10.32 7.80001C10.0866 7.80001 9.86279 7.89272 9.69776 8.05776C9.53273 8.22279 9.44001 8.44662 9.44001 8.68001V13.96C9.44001 14.1934 9.53273 14.4172 9.69776 14.5823C9.86279 14.7473 10.0866 14.84 10.32 14.84Z" fill="#707070"/>
</svg>
